<svg id="Layer_1" data-name="Layer 1" xmlns="http://www.w3.org/2000/svg" xmlns:xlink="http://www.w3.org/1999/xlink" viewBox="0 0 2040.93 1530.06"><defs><style>.cls-1{fill:none;stroke:#fff;stroke-miterlimit:10;}</style></defs><title>flowers</title><image width="4032" height="3024" transform="scale(0.51)" xlink:href="flo.jpg"/><polygon class="cls-1" points="949.04 310.02 815.04 194.03 645.04 294.02 773.04 402.02 949.04 310.02"/><polyline class="cls-1" points="645.04 294.02 797.04 272.02 949.04 310.02 975.04 330.02 907.04 402.02 773.04 402.02 829.04 420.02 853.04 564.02 993.04 482.02 1051.04 332.02 1079.04 128.03 965.04 45.03 862.04 82.03 895.72 263.86"/><polyline class="cls-1" points="853.04 564.02 907.04 402.02 1051.04 332.02 975.04 330.02 1079.04 128.03"/><polygon class="cls-1" points="309.04 696.02 245.04 686.02 261.04 732.02 309.04 724.02 309.04 696.02"/><polyline class="cls-1" points="261.04 732.02 159.04 756.02 189.04 668.02 245.04 686.02 223.04 584.02 255.04 646.02 309.04 666.02 255.04 436.02 60.04 254.03 60.04 940.02 277.04 765.03 397.04 972.02 545.04 954.02 573.04 709.02 483.04 624.02 309.04 724.02 277.04 765.03 159.04 756.02 245.04 686.02 255.04 646.02 309.04 696.02"/><polyline class="cls-1" points="296.6 613.02 296.6 276.02 573.04 424.02 531.04 613.02 483.04 624.02"/><polyline class="cls-1" points="309.04 724.02 445.04 542.02 296.6 276.02"/><polyline class="cls-1" points="434.82 784.02 573.04 709.02 277.04 765.03 434.82 784.02 545.04 954.02"/><polyline class="cls-1" points="60.04 1153.03 245.04 1062.03 277.04 765.03"/><polygon class="cls-1" points="1093.04 808.02 1131.04 644.02 1221.04 596.02 1299.04 668.02 1277.04 732.02 1093.04 808.02"/><polygon class="cls-1" points="1127.04 934.02 1035.04 1088.03 949.04 1120.03 862.04 1027.03 899.04 934.02 994.54 904.02 1127.04 934.02"/><polygon class="cls-1" points="1153.04 874.02 1093.04 808.02 1047.49 916.01 1153.04 874.02"/><polygon class="cls-1" points="1277.04 732.02 1431.04 808.02 1373.04 872.02 1153.04 874.02 1277.04 732.02"/><polygon class="cls-1" points="1127.04 934.02 1153.04 874.02 1292.04 1120.03 1109.04 1153.03 1070.04 1029.43 1127.04 934.02"/><polyline class="cls-1" points="1153.04 874.02 1143.04 1060.03 1292.04 1120.03"/><polygon class="cls-1" points="1719.04 904.02 1587.04 972.02 1587.04 1068.03 1615.04 1092.03 1633.04 997.02 1719.04 904.02"/><polygon class="cls-1" points="1587.04 1028.03 1535.04 1120.03 1535.04 1218.03 1689.04 1266.03 1677.04 1076.03 1687.04 997.02 1755.04 904.02 1905.04 904.02 2005.04 959.03 2023.04 1266.03 1929.04 1266.03 1719.04 1170.03 1705.04 1012.02 1845.04 1085.03 1945.04 1054.03 1779.04 972.02 1587.04 1028.03"/><polygon class="cls-1" points="1636.37 946.61 1597.04 916.01 1636.37 780.02 1825.04 780.02 1755.04 904.02 1683.04 862.02 1636.37 946.61"/><path class="cls-1" d="M1623,735" transform="translate(60.04 73.02)"/><polygon class="cls-1" points="1545.71 538.69 1564.37 477.36 1569.04 530.02 1545.71 538.69"/><polyline class="cls-1" points="1569.04 530.02 1609.04 449.36 1596.37 518.69 1615.71 578.02 1545.71 538.69 1592.37 304.53 1792.59 139.14 1909.59 175.14 1888.59 379.13 1596.37 518.69 1569.04 533.36 1615.71 578.02"/><polyline class="cls-1" points="1618.47 282.97 1474.61 139.14 1374.11 298.02 1395.11 388.13"/><polygon class="cls-1" points="1545.71 538.69 1404.11 298.02 1374.11 547.12 1476.11 578.02 1545.71 538.69"/><line class="cls-1" x1="1474.61" y1="139.14" x2="1592.37" y2="304.53"/><line class="cls-1" x1="1609.04" y1="449.36" x2="1792.59" y2="139.14"/><polyline class="cls-1" points="1909.59 175.14 1596.37 518.69 1843.59 470.62 2035.27 571.71"/><polyline class="cls-1" points="1429.9 564.02 1384.61 644.61 1486.61 754.11 1545.71 538.69"/><polyline class="cls-1" points="1615.71 578.02 1788.09 646.4 2040.08 578.02 1888.59 379.13"/><line class="cls-1" x1="1727.65" y1="622.42" x2="1486.61" y2="754.11"/><line class="cls-1" x1="1476.11" y1="578.02" x2="1486.61" y2="765.03"/></svg>