<svg id="Layer_1" data-name="Layer 1" xmlns="http://www.w3.org/2000/svg" viewBox="0 0 133.77 140.25"><title>LOGO_Sam_Yee</title><path d="M139.19,73.83l.33-45.07L103.71,2.9l-.14-.1H42.41l-35.95,26L6.8,73.83l-.69.31L33,101l.15.15v26.06L72.57,143l.39,0,.12,0h0l.06,0,39.67-15.69V101.19l27.06-27.06Zm-121-.18,6-17.17,7.44-1.6L24.06,76.43l-.29.12.2-.49ZM31.81,54.29h0Zm45.64,64.08-2,2,4-7.63,1-1.1Zm-8.29,8.44-4-3.84L68,120l4.21,3.67Zm-9.22-8.15-.13-.15.2.08Zm-4.72-79.5L66.07,51.32,49.78,46.45Zm35.46-.06,5.55,7.44-16,4.8ZM75.19,92.76l-1.54-8.62L93.22,96.38,83.11,107.32Zm-6.74,26.18-2.59-6.28,5.75,9Zm5-44.54,6.16-5.57L93.55,95.34,73.45,82.77Zm5.9-6.76-5.42,4.91,5.35-19ZM67,53.65l4.91,18.82-5-4.85Zm-.34,15.19,5.71,5.56v8.39L52.75,95.33ZM72.2,84.15l-1.52,8.7-7.91,14.25L53.09,96.36Zm-6.58,27.77,0,0-.06-.14Zm1.48.71L71.67,109l.08-16.11,1.18-6.76,1.13,6.31L74,109l4.35,3.56-5.08,9.75Zm5.84-40.48-5.23-20H78.56ZM51.64,96.32l9.29,10.31L45.2,96.89ZM67.4,119.14l-3,3.1-4-3.82,3.37-8ZM94.7,96.33l6.56.58-16.1,9.74Zm2.08-50h0Zm.12-.72-5.12-6.87h15Zm-6.7-7.59L79.28,50.77l-5.53-7.14L90.19,22Zm-12,13H68.1l5-6.57ZM67,50.78,55.66,38V22L72.43,43.64ZM49.23,45.42l-9.86-6.87h15ZM31.42,53.84,25.07,55.2,36.06,41Zm6.54-15L48.6,46.26v0l.42.32L32.48,54ZM63,109.18,50.37,126.24,44,109.64l-.06-.06.5-11.9ZM44.11,112.8l4.33,11.35-4.33-5.64Zm17.51.05-2.25,5.35-5.41,5Zm-1.85,6.41L63.67,123l-3.8,3.93-4-4.07Zm4.65,4.47,4.27,4.1,3.08,12.74L60.58,127.7Zm5.33,4,3.3-3.36L77,127.78l-4.12,12.81Zm7.81-.82L73.8,123.6l4-4.05,3.48,3.6Zm.88-8.16,3.78-8.37,3.46,8.26L82,122.39ZM101.66,97.9l.49,11.85-6.39,16.71L83,109.18Zm.49-.91h0ZM97.34,46.62l10.84-7.55L113.8,54Zm17.14,7.67h0Zm.4-.44-4.71-12.49,10.85,14ZM91.24,37.72V20.63l11.82-16,4.76,33.06ZM73.09,42.78,55.83,20.51l17-16.45L90,20.51ZM54.6,37.5H38.31L43.08,4.35,54.6,20.62ZM23.82,55.1,8.31,29.7l28.5,8.61ZM43.52,96.36l-9.7,3.41L24.77,77.61Zm-.1,1.15L43,108.63l-8.47-8Zm-.36,21.07-7.45,6.06,7.45-12.76Zm.51.94,5.56,7.24-14-.37Zm11.51,4,4.4,4.47,10.3,11.82-18.71-12.6Zm23,4.32,3.92-4,3.48,3.6-11.4,12.82Zm8.13-1.16-3.47-3.59,3.61-3.68L90,122.85Zm.57-8.31-2.32-5.54,7.8,10.58Zm15.4-5.73v5.86l-4.47,5.81Zm1.05-.85,7,12.49-7-5.85Zm-.5-14.1,8.78,3.09-8.33,7.83Zm9.07,2v.1l-9.21-3.24L121.4,77.73,112.32,100Zm10.41-23.44-7.5-21.39L122,56.69l6,17.18Zm.12-21-13-16.79,28.5-8.61ZM108.86,37.57,104.1,4.48l33.72,24.35ZM90.65,19.66,74.12,3.85h28.23Zm-35.44,0L44,3.85H71.51ZM37.26,37.34,8.43,28.64,42,4.39ZM23.19,56.09l-6,17.33H7.85l-.31-43ZM17.43,74.47l5.93,2.48L32.3,98.84,7.93,74.47Zm16.78,27.38L42.92,110l-8.71,14.91Zm15.84,26,18.47,12.44L36.61,127.49Zm36.52,0,4.22-4.28L95,127.48,75.78,140Zm16.19-8.35,8,6.63L97,127Zm.58-9.55,8.43-7.93v22.87Zm19.42-32.76,5.93-2.48h9.14L114.08,98.44Zm6.2-3.53-6-17.33,15.51-25.39-.31,42.72ZM96.08,128.06l14-.85-32.5,12.88Z" transform="translate(-6.11 -2.8)"/></svg>